<?xml version="1.0" encoding="UTF-8" standalone="no"?>
<svg
   xmlns:dc="http://purl.org/dc/elements/1.1/"
   xmlns:cc="http://creativecommons.org/ns#"
   xmlns:rdf="http://www.w3.org/1999/02/22-rdf-syntax-ns#"
   xmlns:svg="http://www.w3.org/2000/svg"
   xmlns="http://www.w3.org/2000/svg"
   xmlns:sodipodi="http://sodipodi.sourceforge.net/DTD/sodipodi-0.dtd"
   xmlns:inkscape="http://www.inkscape.org/namespaces/inkscape"
   sodipodi:docname="ship.svg"
   inkscape:version="1.0 (4035a4fb49, 2020-05-01)"
   id="svg44"
   version="1.1"
   viewBox="0 0 210 297"
   height="297mm"
   width="210mm">
  <defs
     id="defs38" />
  <sodipodi:namedview
     inkscape:window-maximized="0"
     inkscape:window-y="0"
     inkscape:window-x="0"
     inkscape:window-height="1041"
     inkscape:window-width="1918"
     showgrid="false"
     inkscape:document-rotation="0"
     inkscape:current-layer="layer1"
     inkscape:document-units="mm"
     inkscape:cy="560"
     inkscape:cx="400"
     inkscape:zoom="0.35"
     inkscape:pageshadow="2"
     inkscape:pageopacity="0.0"
     borderopacity="1.0"
     bordercolor="#666666"
     pagecolor="#ffffff"
     id="base" />
  <metadata
     id="metadata41">
    <rdf:RDF>
      <cc:Work
         rdf:about="">
        <dc:format>image/svg+xml</dc:format>
        <dc:type
           rdf:resource="http://purl.org/dc/dcmitype/StillImage" />
        <dc:title></dc:title>
      </cc:Work>
    </rdf:RDF>
  </metadata>
  <g
     id="layer1"
     inkscape:groupmode="layer"
     inkscape:label="Layer 1">
    <path
       id="path46"
       d="M 21.134369,196.79428 C 29.176329,189.8032 107.27469,77.976758 107.27469,77.976758 L 188.16155,199.93385 135.6487,176.62649 105.14401,196.96417 72.274934,176.21082 Z"
       style="fill:none;stroke:#000000;stroke-width:0.264583px;stroke-linecap:butt;stroke-linejoin:miter;stroke-opacity:1" />
    <path
       transform="scale(0.26458333)"
       id="path48"
       d="m 606.26026,706.58183 -93.61372,-41.63946 -58.11865,38.73343 c -31.96526,21.30337 -59.23932,37.67737 -60.609,36.38666 -1.36966,-1.29072 -28.9793,-19.0108 -61.35472,-39.37795 l -58.86439,-37.0312 -88.25381,35.32443 c -48.5396,19.42843 -89.201397,34.99929 -90.359559,34.60192 -1.158161,-0.3974 7.320989,-12.9368 18.842549,-27.86537 28.44462,-36.85589 124.64305,-170.31826 215.85132,-299.46465 41.40974,-58.63413 76.25795,-105.5627 77.44049,-104.28572 5.61186,6.0601 294.73726,444.17328 293.76577,445.14477 -0.61194,0.61194 -43.23877,-17.62515 -94.72628,-40.52686 z"
       style="fill:#000000;stroke-width:2.85714" />
  </g>
</svg>
