<?xml version="1.0" encoding="UTF-8" standalone="no"?>
<svg
   xmlns:dc="http://purl.org/dc/elements/1.1/"
   xmlns:cc="http://creativecommons.org/ns#"
   xmlns:rdf="http://www.w3.org/1999/02/22-rdf-syntax-ns#"
   xmlns:svg="http://www.w3.org/2000/svg"
   xmlns="http://www.w3.org/2000/svg"
   xmlns:sodipodi="http://sodipodi.sourceforge.net/DTD/sodipodi-0.dtd"
   xmlns:inkscape="http://www.inkscape.org/namespaces/inkscape"
   width="210mm"
   height="297mm"
   viewBox="0 0 210 297"
   version="1.1"
   id="svg74"
   inkscape:version="1.0 (4035a4fb49, 2020-05-01)"
   sodipodi:docname="invade.svg">
  <defs
     id="defs68" />
  <sodipodi:namedview
     id="base"
     pagecolor="#ffffff"
     bordercolor="#666666"
     borderopacity="1.0"
     inkscape:pageopacity="0.0"
     inkscape:pageshadow="2"
     inkscape:zoom="0.98994949"
     inkscape:cx="77.095264"
     inkscape:cy="692.08524"
     inkscape:document-units="mm"
     inkscape:current-layer="layer1"
     inkscape:document-rotation="0"
     showgrid="false"
     inkscape:window-width="1918"
     inkscape:window-height="1041"
     inkscape:window-x="0"
     inkscape:window-y="0"
     inkscape:window-maximized="0" />
  <metadata
     id="metadata71">
    <rdf:RDF>
      <cc:Work
         rdf:about="">
        <dc:format>image/svg+xml</dc:format>
        <dc:type
           rdf:resource="http://purl.org/dc/dcmitype/StillImage" />
        <dc:title />
      </cc:Work>
    </rdf:RDF>
  </metadata>
  <g
     inkscape:label="Layer 1"
     inkscape:groupmode="layer"
     id="layer1">
    <path
       style="fill:none;stroke:#000000;stroke-width:0.264583px;stroke-linecap:butt;stroke-linejoin:miter;stroke-opacity:1"
       d="m 34.495263,81.589495 57.105595,113.250535 -51.104115,-20.45085 77.383837,61.02244 67.74162,-89.5656 c 0,0 -45.47189,44.77034 -45.47189,40.75061 0,-4.01974 -32.90649,-111.750723 -32.90649,-111.750723 0,0 -23.455515,32.359593 -26.905333,30.847693 C 76.88867,104.18169 34.495263,81.589495 34.495263,81.589495 Z"
       id="path76" />
    <path
       style="fill:#ffffff;stroke-width:2.85714;stroke:#ffffff"
       d="M 309.11343,779.4864 C 235.55439,721.29171 175.93642,673.1112 176.62905,672.41857 c 0.69264,-0.69263 38.75834,13.74166 84.59046,32.0762 45.83212,18.33454 84.05747,32.6092 84.94522,31.72146 0.88775,-0.88774 -45.51554,-95.05589 -103.11842,-209.26254 C 185.44344,412.74704 138.92199,318.69705 139.66533,317.95372 c 0.74333,-0.74333 36.47987,17.15877 79.41452,39.78245 42.93466,22.62369 80.56879,42.08885 83.63142,43.25592 7.23292,2.75624 35.16372,-25.91904 72.74226,-74.68116 14.78516,-19.1853 27.65411,-34.88236 28.59767,-34.88236 2.6911,0 112.68274,366.56772 120.57917,401.85257 1.88197,8.40966 4.18149,15.28549 5.11,15.2796 7.44117,-0.0471 54.13669,-40.26223 112.40249,-96.80337 16.89285,-16.39283 30.71428,-29.01151 30.71428,-28.04151 0,2.51865 -225.667,300.4662 -228.03531,301.07445 -1.08057,0.27743 -62.14936,-47.10925 -135.7084,-105.30391 z"
       id="path78"
       transform="scale(0.26458333)" />
    <path
       transform="scale(0.26458333)"
       id="path17"
       d="M 430,871.85354 C 424.5,867.4784 392.35714,842.21529 358.57143,815.71334 254.04914,733.72471 189.90674,681.99803 191.18099,680.72377 c 0.67121,-0.6712 34.62919,11.74852 75.46218,27.59934 40.833,15.85086 75.64983,28.81975 77.37075,28.81975 1.72091,0 3.12894,-1.2012 3.12894,-2.66932 0,-1.46814 -45.69208,-94.20463 -101.53794,-206.08111 C 189.75905,416.51595 144.69381,324.35381 145.45994,323.58768 c 0.76613,-0.76613 36.49391,16.85065 79.39508,39.14839 l 78.00212,40.54135 9.24517,-4.92393 c 9.19063,-4.89489 38.45787,-37.39122 70.56765,-78.35349 9.23866,-11.78571 17.75349,-22.52183 18.92183,-23.85802 1.16834,-1.3362 7.32343,14.09237 13.67798,34.28571 18.42309,58.54448 73.14229,241.13862 93.40326,311.68017 10.21457,35.56351 19.09494,65.18391 19.73414,65.82311 4.4784,4.4784 34.9932,-19.93663 98.68009,-78.95443 14.17343,-13.13431 25.76988,-23.01285 25.76988,-21.95231 0,1.87531 -55.35257,75.47328 -156.41731,207.97577 -27.26792,35.75 -51.12192,64.95689 -53.00892,64.9042 C 441.54391,879.8516 435.5,876.22871 430,871.85354 Z"
       style="fill:none;stroke-width:2.85714" />
    <path
       transform="scale(0.26458333)"
       id="path19"
       d=""
       style="fill:none;stroke-width:1.01015" />
    <path
       transform="scale(0.26458333)"
       id="path21"
       d=""
       style="fill:none;stroke-width:1.01015" />
  </g>
</svg>
